<svg width="185" height="70" viewBox="0 0 185 70" fill="none" xmlns="http://www.w3.org/2000/svg">
<rect x="1.5" y="1.5" width="182" height="67" rx="8.5" fill="black"/>
<path d="M68.2075 27V18.95H71.6C72.4587 18.95 73.2138 19.1187 73.8655 19.456C74.5248 19.7933 75.0347 20.2648 75.395 20.8705C75.763 21.4762 75.947 22.1777 75.947 22.975C75.947 23.7723 75.763 24.4738 75.395 25.0795C75.0347 25.6852 74.5248 26.1567 73.8655 26.494C73.2138 26.8313 72.4587 27 71.6 27H68.2075ZM69.3575 25.9995H71.531C72.198 25.9995 72.773 25.873 73.256 25.62C73.7467 25.367 74.1262 25.0143 74.3945 24.562C74.6628 24.102 74.797 23.573 74.797 22.975C74.797 22.3693 74.6628 21.8403 74.3945 21.388C74.1262 20.9357 73.7467 20.583 73.256 20.33C72.773 20.077 72.198 19.9505 71.531 19.9505H69.3575V25.9995ZM80.217 27.069C79.6037 27.069 79.0594 26.9348 78.584 26.6665C78.1087 26.3982 77.733 26.0302 77.457 25.5625C77.181 25.0872 77.043 24.5505 77.043 23.9525C77.043 23.3468 77.181 22.8102 77.457 22.3425C77.733 21.8748 78.1087 21.5107 78.584 21.25C79.0594 20.9817 79.6037 20.8475 80.217 20.8475C80.8227 20.8475 81.3632 20.9817 81.8385 21.25C82.3215 21.5107 82.6972 21.8748 82.9655 22.3425C83.2415 22.8025 83.3795 23.3392 83.3795 23.9525C83.3795 24.5582 83.2415 25.0948 82.9655 25.5625C82.6972 26.0302 82.3215 26.3982 81.8385 26.6665C81.3632 26.9348 80.8227 27.069 80.217 27.069ZM80.217 26.103C80.608 26.103 80.9569 26.0148 81.2635 25.8385C81.5779 25.6622 81.8232 25.413 81.9995 25.091C82.1759 24.7613 82.264 24.3818 82.264 23.9525C82.264 23.5155 82.1759 23.1398 81.9995 22.8255C81.8232 22.5035 81.5779 22.2543 81.2635 22.078C80.9569 21.9017 80.608 21.8135 80.217 21.8135C79.826 21.8135 79.4772 21.9017 79.1705 22.078C78.8639 22.2543 78.6185 22.5035 78.4345 22.8255C78.2505 23.1398 78.1585 23.5155 78.1585 23.9525C78.1585 24.3818 78.2505 24.7613 78.4345 25.091C78.6185 25.413 78.8639 25.6622 79.1705 25.8385C79.4772 26.0148 79.826 26.103 80.217 26.103ZM86.085 27L83.8195 20.905H84.866L86.8785 26.425H86.384L88.477 20.905H89.4085L91.4555 26.425H90.9725L93.031 20.905H94.02L91.743 27H90.685L88.7645 21.963H89.0865L87.143 27H86.085ZM98.4538 20.8475C98.9521 20.8475 99.3891 20.9433 99.7648 21.135C100.148 21.3267 100.447 21.618 100.662 22.009C100.876 22.4 100.984 22.8945 100.984 23.4925V27H99.8798V23.619C99.8798 23.0287 99.7341 22.584 99.4428 22.285C99.1591 21.986 98.7566 21.8365 98.2353 21.8365C97.8443 21.8365 97.5031 21.9132 97.2118 22.0665C96.9204 22.2198 96.6943 22.446 96.5333 22.745C96.3799 23.044 96.3033 23.4158 96.3033 23.8605V27H95.1993V20.905H96.2573V22.5495L96.0848 22.1125C96.2841 21.7138 96.5908 21.4033 97.0048 21.181C97.4188 20.9587 97.9018 20.8475 98.4538 20.8475ZM103.086 27V18.467H104.19V27H103.086ZM108.967 27.069C108.354 27.069 107.81 26.9348 107.334 26.6665C106.859 26.3982 106.483 26.0302 106.207 25.5625C105.931 25.0872 105.793 24.5505 105.793 23.9525C105.793 23.3468 105.931 22.8102 106.207 22.3425C106.483 21.8748 106.859 21.5107 107.334 21.25C107.81 20.9817 108.354 20.8475 108.967 20.8475C109.573 20.8475 110.114 20.9817 110.589 21.25C111.072 21.5107 111.448 21.8748 111.716 22.3425C111.992 22.8025 112.13 23.3392 112.13 23.9525C112.13 24.5582 111.992 25.0948 111.716 25.5625C111.448 26.0302 111.072 26.3982 110.589 26.6665C110.114 26.9348 109.573 27.069 108.967 27.069ZM108.967 26.103C109.358 26.103 109.707 26.0148 110.014 25.8385C110.328 25.6622 110.574 25.413 110.75 25.091C110.926 24.7613 111.014 24.3818 111.014 23.9525C111.014 23.5155 110.926 23.1398 110.75 22.8255C110.574 22.5035 110.328 22.2543 110.014 22.078C109.707 21.9017 109.358 21.8135 108.967 21.8135C108.576 21.8135 108.228 21.9017 107.921 22.078C107.614 22.2543 107.369 22.5035 107.185 22.8255C107.001 23.1398 106.909 23.5155 106.909 23.9525C106.909 24.3818 107.001 24.7613 107.185 25.091C107.369 25.413 107.614 25.6622 107.921 25.8385C108.228 26.0148 108.576 26.103 108.967 26.103ZM117.443 27V25.712L117.386 25.4705V23.274C117.386 22.8063 117.248 22.446 116.972 22.193C116.703 21.9323 116.297 21.802 115.753 21.802C115.392 21.802 115.04 21.8633 114.695 21.986C114.35 22.101 114.058 22.2582 113.821 22.4575L113.361 21.6295C113.675 21.3765 114.051 21.1848 114.488 21.0545C114.932 20.9165 115.396 20.8475 115.879 20.8475C116.715 20.8475 117.359 21.0507 117.811 21.457C118.264 21.8633 118.49 22.4843 118.49 23.32V27H117.443ZM115.442 27.069C114.99 27.069 114.591 26.9923 114.246 26.839C113.909 26.6857 113.648 26.4748 113.464 26.2065C113.28 25.9305 113.188 25.62 113.188 25.275C113.188 24.9453 113.265 24.6463 113.418 24.378C113.579 24.1097 113.836 23.895 114.189 23.734C114.549 23.573 115.032 23.4925 115.638 23.4925H117.57V24.286H115.684C115.132 24.286 114.76 24.378 114.568 24.562C114.377 24.746 114.281 24.9683 114.281 25.229C114.281 25.528 114.4 25.7695 114.637 25.9535C114.875 26.1298 115.205 26.218 115.626 26.218C116.04 26.218 116.401 26.126 116.707 25.942C117.022 25.758 117.248 25.4897 117.386 25.137L117.604 25.896C117.459 26.2563 117.202 26.5438 116.834 26.7585C116.466 26.9655 116.002 27.069 115.442 27.069ZM123.11 27.069C122.52 27.069 121.991 26.9387 121.523 26.678C121.063 26.4173 120.699 26.0532 120.431 25.5855C120.162 25.1178 120.028 24.5735 120.028 23.9525C120.028 23.3315 120.162 22.791 120.431 22.331C120.699 21.8633 121.063 21.4992 121.523 21.2385C121.991 20.9778 122.52 20.8475 123.11 20.8475C123.624 20.8475 124.088 20.9625 124.502 21.1925C124.916 21.4225 125.245 21.7675 125.491 22.2275C125.744 22.6875 125.87 23.2625 125.87 23.9525C125.87 24.6425 125.748 25.2175 125.502 25.6775C125.265 26.1375 124.939 26.4863 124.525 26.724C124.111 26.954 123.639 27.069 123.11 27.069ZM123.202 26.103C123.586 26.103 123.931 26.0148 124.237 25.8385C124.552 25.6622 124.797 25.413 124.973 25.091C125.157 24.7613 125.249 24.3818 125.249 23.9525C125.249 23.5155 125.157 23.1398 124.973 22.8255C124.797 22.5035 124.552 22.2543 124.237 22.078C123.931 21.9017 123.586 21.8135 123.202 21.8135C122.811 21.8135 122.462 21.9017 122.156 22.078C121.849 22.2543 121.604 22.5035 121.42 22.8255C121.236 23.1398 121.144 23.5155 121.144 23.9525C121.144 24.3818 121.236 24.7613 121.42 25.091C121.604 25.413 121.849 25.6622 122.156 25.8385C122.462 26.0148 122.811 26.103 123.202 26.103ZM125.284 27V25.3555L125.353 23.941L125.238 22.5265V18.467H126.342V27H125.284ZM134.248 27.069C133.634 27.069 133.09 26.9348 132.615 26.6665C132.139 26.3982 131.764 26.0302 131.488 25.5625C131.212 25.0872 131.074 24.5505 131.074 23.9525C131.074 23.3468 131.212 22.8102 131.488 22.3425C131.764 21.8748 132.139 21.5107 132.615 21.25C133.09 20.9817 133.634 20.8475 134.248 20.8475C134.853 20.8475 135.394 20.9817 135.869 21.25C136.352 21.5107 136.728 21.8748 136.996 22.3425C137.272 22.8025 137.41 23.3392 137.41 23.9525C137.41 24.5582 137.272 25.0948 136.996 25.5625C136.728 26.0302 136.352 26.3982 135.869 26.6665C135.394 26.9348 134.853 27.069 134.248 27.069ZM134.248 26.103C134.639 26.103 134.988 26.0148 135.294 25.8385C135.609 25.6622 135.854 25.413 136.03 25.091C136.207 24.7613 136.295 24.3818 136.295 23.9525C136.295 23.5155 136.207 23.1398 136.03 22.8255C135.854 22.5035 135.609 22.2543 135.294 22.078C134.988 21.9017 134.639 21.8135 134.248 21.8135C133.857 21.8135 133.508 21.9017 133.201 22.078C132.895 22.2543 132.649 22.5035 132.465 22.8255C132.281 23.1398 132.189 23.5155 132.189 23.9525C132.189 24.3818 132.281 24.7613 132.465 25.091C132.649 25.413 132.895 25.6622 133.201 25.8385C133.508 26.0148 133.857 26.103 134.248 26.103ZM142.251 20.8475C142.749 20.8475 143.186 20.9433 143.562 21.135C143.945 21.3267 144.244 21.618 144.459 22.009C144.673 22.4 144.781 22.8945 144.781 23.4925V27H143.677V23.619C143.677 23.0287 143.531 22.584 143.24 22.285C142.956 21.986 142.553 21.8365 142.032 21.8365C141.641 21.8365 141.3 21.9132 141.009 22.0665C140.717 22.2198 140.491 22.446 140.33 22.745C140.177 23.044 140.1 23.4158 140.1 23.8605V27H138.996V20.905H140.054V22.5495L139.882 22.1125C140.081 21.7138 140.388 21.4033 140.802 21.181C141.216 20.9587 141.699 20.8475 142.251 20.8475ZM152.123 27.069C151.51 27.069 151.035 26.9042 150.697 26.5745C150.36 26.2448 150.191 25.7733 150.191 25.16V19.571H151.295V25.114C151.295 25.4437 151.376 25.6967 151.537 25.873C151.705 26.0493 151.943 26.1375 152.25 26.1375C152.595 26.1375 152.882 26.0417 153.112 25.85L153.457 26.6435C153.289 26.7892 153.085 26.8965 152.848 26.9655C152.618 27.0345 152.376 27.069 152.123 27.069ZM149.156 21.8135V20.905H153.043V21.8135H149.156ZM158.105 20.8475C158.604 20.8475 159.041 20.9433 159.416 21.135C159.8 21.3267 160.099 21.618 160.313 22.009C160.528 22.4 160.635 22.8945 160.635 23.4925V27H159.531V23.619C159.531 23.0287 159.386 22.584 159.094 22.285C158.811 21.986 158.408 21.8365 157.887 21.8365C157.496 21.8365 157.155 21.9132 156.863 22.0665C156.572 22.2198 156.346 22.446 156.185 22.745C156.032 23.044 155.955 23.4158 155.955 23.8605V27H154.851V18.467H155.955V22.5495L155.736 22.1125C155.936 21.7138 156.242 21.4033 156.656 21.181C157.07 20.9587 157.553 20.8475 158.105 20.8475ZM165.452 27.069C164.8 27.069 164.225 26.9348 163.727 26.6665C163.236 26.3982 162.853 26.0302 162.577 25.5625C162.308 25.0948 162.174 24.5582 162.174 23.9525C162.174 23.3468 162.305 22.8102 162.565 22.3425C162.834 21.8748 163.198 21.5107 163.658 21.25C164.125 20.9817 164.651 20.8475 165.233 20.8475C165.824 20.8475 166.345 20.9778 166.797 21.2385C167.25 21.4992 167.602 21.8672 167.855 22.3425C168.116 22.8102 168.246 23.3583 168.246 23.987C168.246 24.033 168.242 24.0867 168.235 24.148C168.235 24.2093 168.231 24.2668 168.223 24.3205H163.037V23.527H167.648L167.2 23.803C167.207 23.412 167.127 23.0632 166.958 22.7565C166.79 22.4498 166.556 22.2122 166.257 22.0435C165.965 21.8672 165.624 21.779 165.233 21.779C164.85 21.779 164.509 21.8672 164.21 22.0435C163.911 22.2122 163.677 22.4537 163.508 22.768C163.34 23.0747 163.255 23.4273 163.255 23.826V24.01C163.255 24.4163 163.347 24.7805 163.531 25.1025C163.723 25.4168 163.987 25.6622 164.325 25.8385C164.662 26.0148 165.049 26.103 165.486 26.103C165.847 26.103 166.172 26.0417 166.464 25.919C166.763 25.7963 167.023 25.6123 167.246 25.367L167.855 26.08C167.579 26.402 167.234 26.6473 166.82 26.816C166.414 26.9847 165.958 27.069 165.452 27.069Z" fill="white"/>
<path d="M66.9 54L73.2 40H75.76L82.08 54H79.36L73.94 41.38H74.98L69.58 54H66.9ZM69.8 50.76L70.5 48.72H78.06L78.76 50.76H69.8ZM89.5995 54.14C88.7329 54.14 87.9395 53.94 87.2195 53.54C86.5129 53.14 85.9462 52.54 85.5195 51.74C85.1062 50.9267 84.8995 49.9 84.8995 48.66C84.8995 47.4067 85.0995 46.38 85.4995 45.58C85.9129 44.78 86.4729 44.1867 87.1795 43.8C87.8862 43.4 88.6929 43.2 89.5995 43.2C90.6529 43.2 91.5795 43.4267 92.3795 43.88C93.1929 44.3333 93.8329 44.9667 94.2995 45.78C94.7795 46.5933 95.0195 47.5533 95.0195 48.66C95.0195 49.7667 94.7795 50.7333 94.2995 51.56C93.8329 52.3733 93.1929 53.0067 92.3795 53.46C91.5795 53.9133 90.6529 54.14 89.5995 54.14ZM83.6795 57.88V43.32H86.0595V45.84L85.9795 48.68L86.1795 51.52V57.88H83.6795ZM89.3195 52C89.9195 52 90.4529 51.8667 90.9195 51.6C91.3995 51.3333 91.7795 50.9467 92.0595 50.44C92.3395 49.9333 92.4795 49.34 92.4795 48.66C92.4795 47.9667 92.3395 47.3733 92.0595 46.88C91.7795 46.3733 91.3995 45.9867 90.9195 45.72C90.4529 45.4533 89.9195 45.32 89.3195 45.32C88.7195 45.32 88.1795 45.4533 87.6995 45.72C87.2195 45.9867 86.8395 46.3733 86.5595 46.88C86.2795 47.3733 86.1395 47.9667 86.1395 48.66C86.1395 49.34 86.2795 49.9333 86.5595 50.44C86.8395 50.9467 87.2195 51.3333 87.6995 51.6C88.1795 51.8667 88.7195 52 89.3195 52ZM103.37 54.14C102.503 54.14 101.71 53.94 100.99 53.54C100.283 53.14 99.7162 52.54 99.2895 51.74C98.8762 50.9267 98.6695 49.9 98.6695 48.66C98.6695 47.4067 98.8695 46.38 99.2695 45.58C99.6829 44.78 100.243 44.1867 100.95 43.8C101.656 43.4 102.463 43.2 103.37 43.2C104.423 43.2 105.35 43.4267 106.15 43.88C106.963 44.3333 107.603 44.9667 108.07 45.78C108.55 46.5933 108.79 47.5533 108.79 48.66C108.79 49.7667 108.55 50.7333 108.07 51.56C107.603 52.3733 106.963 53.0067 106.15 53.46C105.35 53.9133 104.423 54.14 103.37 54.14ZM97.4495 57.88V43.32H99.8295V45.84L99.7495 48.68L99.9495 51.52V57.88H97.4495ZM103.09 52C103.69 52 104.223 51.8667 104.69 51.6C105.17 51.3333 105.55 50.9467 105.83 50.44C106.11 49.9333 106.25 49.34 106.25 48.66C106.25 47.9667 106.11 47.3733 105.83 46.88C105.55 46.3733 105.17 45.9867 104.69 45.72C104.223 45.4533 103.69 45.32 103.09 45.32C102.49 45.32 101.95 45.4533 101.47 45.72C100.99 45.9867 100.61 46.3733 100.33 46.88C100.05 47.3733 99.9095 47.9667 99.9095 48.66C99.9095 49.34 100.05 49.9333 100.33 50.44C100.61 50.9467 100.99 51.3333 101.47 51.6C101.95 51.8667 102.49 52 103.09 52ZM121.386 54.2C120.293 54.2 119.246 54.0467 118.246 53.74C117.246 53.42 116.453 53.0133 115.866 52.52L116.766 50.5C117.326 50.94 118.019 51.3067 118.846 51.6C119.673 51.8933 120.519 52.04 121.386 52.04C122.119 52.04 122.713 51.96 123.166 51.8C123.619 51.64 123.953 51.4267 124.166 51.16C124.379 50.88 124.486 50.5667 124.486 50.22C124.486 49.7933 124.333 49.4533 124.026 49.2C123.719 48.9333 123.319 48.7267 122.826 48.58C122.346 48.42 121.806 48.2733 121.206 48.14C120.619 48.0067 120.026 47.8533 119.426 47.68C118.839 47.4933 118.299 47.26 117.806 46.98C117.326 46.6867 116.933 46.3 116.626 45.82C116.319 45.34 116.166 44.7267 116.166 43.98C116.166 43.22 116.366 42.5267 116.766 41.9C117.179 41.26 117.799 40.7533 118.626 40.38C119.466 39.9933 120.526 39.8 121.806 39.8C122.646 39.8 123.479 39.9067 124.306 40.12C125.133 40.3333 125.853 40.64 126.466 41.04L125.646 43.06C125.019 42.6867 124.373 42.4133 123.706 42.24C123.039 42.0533 122.399 41.96 121.786 41.96C121.066 41.96 120.479 42.0467 120.026 42.22C119.586 42.3933 119.259 42.62 119.046 42.9C118.846 43.18 118.746 43.5 118.746 43.86C118.746 44.2867 118.893 44.6333 119.186 44.9C119.493 45.1533 119.886 45.3533 120.366 45.5C120.859 45.6467 121.406 45.7933 122.006 45.94C122.606 46.0733 123.199 46.2267 123.786 46.4C124.386 46.5733 124.926 46.8 125.406 47.08C125.899 47.36 126.293 47.74 126.586 48.22C126.893 48.7 127.046 49.3067 127.046 50.04C127.046 50.7867 126.839 51.48 126.426 52.12C126.026 52.7467 125.406 53.2533 124.566 53.64C123.726 54.0133 122.666 54.2 121.386 54.2ZM133.463 54.14C132.29 54.14 131.383 53.84 130.743 53.24C130.103 52.6267 129.783 51.7267 129.783 50.54V40.96H132.283V50.48C132.283 50.9867 132.41 51.38 132.663 51.66C132.93 51.94 133.296 52.08 133.763 52.08C134.323 52.08 134.79 51.9333 135.163 51.64L135.863 53.42C135.57 53.66 135.21 53.84 134.783 53.96C134.356 54.08 133.916 54.14 133.463 54.14ZM128.023 45.4V43.4H135.143V45.4H128.023ZM142.427 54.14C141.334 54.14 140.361 53.9067 139.507 53.44C138.654 52.96 137.981 52.3067 137.487 51.48C136.994 50.6533 136.747 49.7133 136.747 48.66C136.747 47.5933 136.994 46.6533 137.487 45.84C137.981 45.0133 138.654 44.3667 139.507 43.9C140.361 43.4333 141.334 43.2 142.427 43.2C143.534 43.2 144.514 43.4333 145.367 43.9C146.234 44.3667 146.907 45.0067 147.387 45.82C147.881 46.6333 148.127 47.58 148.127 48.66C148.127 49.7133 147.881 50.6533 147.387 51.48C146.907 52.3067 146.234 52.96 145.367 53.44C144.514 53.9067 143.534 54.14 142.427 54.14ZM142.427 52C143.041 52 143.587 51.8667 144.067 51.6C144.547 51.3333 144.921 50.9467 145.187 50.44C145.467 49.9333 145.607 49.34 145.607 48.66C145.607 47.9667 145.467 47.3733 145.187 46.88C144.921 46.3733 144.547 45.9867 144.067 45.72C143.587 45.4533 143.047 45.32 142.447 45.32C141.834 45.32 141.287 45.4533 140.807 45.72C140.341 45.9867 139.967 46.3733 139.687 46.88C139.407 47.3733 139.267 47.9667 139.267 48.66C139.267 49.34 139.407 49.9333 139.687 50.44C139.967 50.9467 140.341 51.3333 140.807 51.6C141.287 51.8667 141.827 52 142.427 52ZM150.577 54V43.32H152.957V46.26L152.677 45.4C152.997 44.68 153.497 44.1333 154.177 43.76C154.87 43.3867 155.73 43.2 156.757 43.2V45.58C156.65 45.5533 156.55 45.54 156.457 45.54C156.364 45.5267 156.27 45.52 156.177 45.52C155.23 45.52 154.477 45.8 153.917 46.36C153.357 46.9067 153.077 47.7267 153.077 48.82V54H150.577ZM163.859 54.14C162.672 54.14 161.632 53.9067 160.739 53.44C159.859 52.96 159.172 52.3067 158.679 51.48C158.199 50.6533 157.959 49.7133 157.959 48.66C157.959 47.5933 158.192 46.6533 158.659 45.84C159.139 45.0133 159.792 44.3667 160.619 43.9C161.459 43.4333 162.412 43.2 163.479 43.2C164.519 43.2 165.446 43.4267 166.259 43.88C167.072 44.3333 167.712 44.9733 168.179 45.8C168.646 46.6267 168.879 47.6 168.879 48.72C168.879 48.8267 168.872 48.9467 168.859 49.08C168.859 49.2133 168.852 49.34 168.839 49.46H159.939V47.8H167.519L166.539 48.32C166.552 47.7067 166.426 47.1667 166.159 46.7C165.892 46.2333 165.526 45.8667 165.059 45.6C164.606 45.3333 164.079 45.2 163.479 45.2C162.866 45.2 162.326 45.3333 161.859 45.6C161.406 45.8667 161.046 46.24 160.779 46.72C160.526 47.1867 160.399 47.74 160.399 48.38V48.78C160.399 49.42 160.546 49.9867 160.839 50.48C161.132 50.9733 161.546 51.3533 162.079 51.62C162.612 51.8867 163.226 52.02 163.919 52.02C164.519 52.02 165.059 51.9267 165.539 51.74C166.019 51.5533 166.446 51.26 166.819 50.86L168.159 52.4C167.679 52.96 167.072 53.3933 166.339 53.7C165.619 53.9933 164.792 54.14 163.859 54.14Z" fill="white"/>
<path fill-rule="evenodd" clip-rule="evenodd" d="M45.875 16.75C46.25 18.8125 45.3125 20.875 44.1875 22.375C43.0625 23.875 41 25.1875 38.9375 25C38.5625 22.9375 39.5 21.0625 40.625 19.5625C41.9375 18.0625 44 16.9375 45.875 16.75ZM51.875 49.375C52.8125 47.875 53.375 46.9375 54.125 45.25C48.3125 43 47.375 34.75 53.1875 31.75C51.5 29.5 49.0625 28.375 46.625 28.375C44.9375 28.375 43.8125 28.75 42.6875 29.125C41.75 29.5 41 29.6875 40.0625 29.6875C38.9375 29.6875 38.1875 29.3125 37.0625 28.9375C35.9375 28.5625 34.8125 28.1875 33.5 28.1875C30.875 28.1875 28.0625 29.6875 26.375 32.5C23.9375 36.25 24.3125 43.5625 28.25 49.5625C29.9375 51.8125 31.8125 54.25 34.25 54.25C35.375 54.25 35.9375 53.875 36.6875 53.6875C37.625 53.3125 38.5625 52.9375 40.0625 52.9375C41.75 52.9375 42.5 53.3125 43.4375 53.6875C44.1875 54.0625 44.75 54.25 45.875 54.25C48.5 54.25 50.375 51.4375 51.875 49.375Z" stroke="white" stroke-width="2.5" stroke-miterlimit="10" stroke-linecap="round" stroke-linejoin="round"/>
<rect x="17.5" y="13.5" width="44" height="44" stroke="black"/>
<rect x="1.5" y="1.5" width="182" height="67" rx="8.5" stroke="black" stroke-width="3"/>
</svg>
