<svg width="206" height="70" viewBox="0 0 206 70" fill="none" xmlns="http://www.w3.org/2000/svg">
<rect x="1.5" y="1.5" width="203" height="67" rx="8.5" fill="black"/>
<path d="M48.6688 42.925C48.3125 42.925 47.9375 42.775 47.675 42.5125L41.6938 36.5312C41.15 35.9875 41.15 35.0875 41.6938 34.5437L47.7313 28.5062C48.1625 28.075 48.8188 27.9812 49.3625 28.2437L57.7813 32.4625C58.9438 33.025 59.675 34.1875 59.675 35.5C59.675 36.8125 58.9438 37.975 57.7813 38.5375L49.325 42.775C49.1 42.8687 48.875 42.925 48.6688 42.925ZM44.675 35.5375L48.9313 39.7938L56.4875 36.0062C56.4875 36.0062 56.4875 36.0062 56.5063 36.0062C56.7875 35.875 56.825 35.6312 56.825 35.5C56.825 35.3687 56.7875 35.125 56.5063 34.9938L48.9875 31.225L44.675 35.5375Z" fill="white"/>
<path d="M22.7563 55.6562C22.1375 55.6562 21.5 55.4875 20.9562 55.1312C19.9437 54.5125 19.3438 53.425 19.3438 52.225V18.7375C19.3438 17.5562 19.9437 16.4688 20.9562 15.8313C21.9688 15.2125 23.2063 15.1375 24.275 15.6812L49.3438 28.225C49.7563 28.4312 50.0375 28.8063 50.0938 29.2563C50.15 29.7063 50.0188 30.1562 49.7 30.475L25.7 54.475C25.5875 54.5875 25.475 54.6625 25.325 54.7375L24.2375 55.2812C23.7875 55.5437 23.2625 55.6562 22.7563 55.6562ZM22.7563 18.1562C22.625 18.1562 22.5125 18.2125 22.4375 18.25C22.325 18.3062 22.1563 18.475 22.1563 18.7562V52.2437C22.1563 52.5437 22.325 52.6938 22.4375 52.75C22.55 52.825 22.7563 52.9 23.0375 52.7687L23.9 52.3375L46.3438 29.8938L23.0188 18.2313C22.925 18.175 22.8313 18.1562 22.7563 18.1562Z" fill="white"/>
<path d="M24.725 54.9063C24.2938 54.9063 23.8625 54.7 23.5813 54.325C23.1688 53.7625 23.2438 52.9938 23.7313 52.5063L41.6938 34.5437C41.9563 34.2812 42.3125 34.1312 42.6875 34.1312C43.0625 34.1312 43.4188 34.2812 43.6813 34.5437L49.6625 40.525C49.9813 40.8437 50.1313 41.2937 50.0563 41.7437C49.9813 42.1937 49.7 42.5688 49.3063 42.775L25.3813 54.7562C25.1563 54.85 24.95 54.9063 24.725 54.9063ZM42.6875 37.525L31.8688 48.3438L46.2875 41.125L42.6875 37.525Z" fill="white"/>
<path d="M42.6875 36.9437C42.3312 36.9437 41.975 36.8125 41.6937 36.5312L23.675 18.5125C23.1312 17.9687 23.1312 17.0687 23.675 16.525C24.2187 15.9813 25.1187 15.9813 25.6625 16.525L43.6812 34.5437C44.225 35.0875 44.225 35.9875 43.6812 36.5312C43.4187 36.8125 43.0437 36.9437 42.6875 36.9437Z" fill="white"/>
<path d="M48.6875 42.9625C48.35 42.9625 47.9937 42.8313 47.7312 42.55L47.675 42.4938C47.1312 41.95 47.1312 41.05 47.6937 40.5063C48.2562 39.9625 49.1375 39.9625 49.6812 40.525C50.225 41.0687 50.2437 42.0063 49.7 42.55C49.4 42.8313 49.0437 42.9625 48.6875 42.9625Z" fill="white"/>
<path d="M73.315 29.12C72.505 29.12 71.76 28.99 71.08 28.73C70.4 28.46 69.81 28.085 69.31 27.605C68.81 27.115 68.42 26.545 68.14 25.895C67.86 25.245 67.72 24.53 67.72 23.75C67.72 22.97 67.86 22.255 68.14 21.605C68.42 20.955 68.81 20.39 69.31 19.91C69.82 19.42 70.415 19.045 71.095 18.785C71.775 18.515 72.525 18.38 73.345 18.38C74.175 18.38 74.935 18.515 75.625 18.785C76.315 19.055 76.9 19.46 77.38 20L76.45 20.93C76.02 20.51 75.55 20.205 75.04 20.015C74.54 19.815 73.995 19.715 73.405 19.715C72.805 19.715 72.245 19.815 71.725 20.015C71.215 20.215 70.77 20.495 70.39 20.855C70.02 21.215 69.73 21.645 69.52 22.145C69.32 22.635 69.22 23.17 69.22 23.75C69.22 24.32 69.32 24.855 69.52 25.355C69.73 25.845 70.02 26.275 70.39 26.645C70.77 27.005 71.215 27.285 71.725 27.485C72.235 27.685 72.79 27.785 73.39 27.785C73.95 27.785 74.485 27.7 74.995 27.53C75.515 27.35 75.995 27.055 76.435 26.645L77.29 27.785C76.77 28.225 76.16 28.56 75.46 28.79C74.77 29.01 74.055 29.12 73.315 29.12ZM75.85 27.59V23.69H77.29V27.785L75.85 27.59ZM81.586 23.03H86.986V24.305H81.586V23.03ZM81.721 27.695H87.841V29H80.221V18.5H87.631V19.805H81.721V27.695ZM92.4139 29V19.805H88.8139V18.5H97.4989V19.805H93.8989V29H92.4139ZM103.279 29V18.5H104.779V29H103.279ZM110.067 29V19.805H106.467V18.5H115.152V19.805H111.552V29H110.067ZM125.672 29.12C124.872 29.12 124.127 28.985 123.437 28.715C122.757 28.445 122.167 28.07 121.667 27.59C121.167 27.1 120.777 26.53 120.497 25.88C120.217 25.23 120.077 24.52 120.077 23.75C120.077 22.98 120.217 22.27 120.497 21.62C120.777 20.97 121.167 20.405 121.667 19.925C122.167 19.435 122.757 19.055 123.437 18.785C124.117 18.515 124.862 18.38 125.672 18.38C126.472 18.38 127.207 18.515 127.877 18.785C128.557 19.045 129.147 19.42 129.647 19.91C130.157 20.39 130.547 20.955 130.817 21.605C131.097 22.255 131.237 22.97 131.237 23.75C131.237 24.53 131.097 25.245 130.817 25.895C130.547 26.545 130.157 27.115 129.647 27.605C129.147 28.085 128.557 28.46 127.877 28.73C127.207 28.99 126.472 29.12 125.672 29.12ZM125.672 27.785C126.252 27.785 126.787 27.685 127.277 27.485C127.777 27.285 128.207 27.005 128.567 26.645C128.937 26.275 129.222 25.845 129.422 25.355C129.632 24.865 129.737 24.33 129.737 23.75C129.737 23.17 129.632 22.635 129.422 22.145C129.222 21.655 128.937 21.23 128.567 20.87C128.207 20.5 127.777 20.215 127.277 20.015C126.787 19.815 126.252 19.715 125.672 19.715C125.082 19.715 124.537 19.815 124.037 20.015C123.547 20.215 123.117 20.5 122.747 20.87C122.377 21.23 122.087 21.655 121.877 22.145C121.677 22.635 121.577 23.17 121.577 23.75C121.577 24.33 121.677 24.865 121.877 25.355C122.087 25.845 122.377 26.275 122.747 26.645C123.117 27.005 123.547 27.285 124.037 27.485C124.537 27.685 125.082 27.785 125.672 27.785ZM133.589 29V18.5H134.819L141.764 27.125H141.119V18.5H142.619V29H141.389L134.444 20.375H135.089V29H133.589Z" fill="white"/>
<path d="M75.42 54.2C74.3267 54.2 73.32 54.0267 72.4 53.68C71.4933 53.32 70.7 52.82 70.02 52.18C69.34 51.5267 68.8133 50.76 68.44 49.88C68.0667 49 67.88 48.04 67.88 47C67.88 45.96 68.0667 45 68.44 44.12C68.8133 43.24 69.34 42.48 70.02 41.84C70.7133 41.1867 71.52 40.6867 72.44 40.34C73.36 39.98 74.3667 39.8 75.46 39.8C76.6467 39.8 77.7133 39.9933 78.66 40.38C79.62 40.7667 80.4267 41.3333 81.08 42.08L79.44 43.68C78.8933 43.1333 78.3 42.7333 77.66 42.48C77.0333 42.2133 76.34 42.08 75.58 42.08C74.8467 42.08 74.1667 42.2 73.54 42.44C72.9133 42.68 72.3733 43.02 71.92 43.46C71.4667 43.9 71.1133 44.42 70.86 45.02C70.62 45.62 70.5 46.28 70.5 47C70.5 47.7067 70.62 48.36 70.86 48.96C71.1133 49.56 71.4667 50.0867 71.92 50.54C72.3733 50.98 72.9067 51.32 73.52 51.56C74.1333 51.8 74.8133 51.92 75.56 51.92C76.2533 51.92 76.92 51.8133 77.56 51.6C78.2133 51.3733 78.8333 51 79.42 50.48L80.9 52.42C80.1667 53.0067 79.3133 53.4533 78.34 53.76C77.38 54.0533 76.4067 54.2 75.42 54.2ZM78.44 52.08V46.84H80.9V52.42L78.44 52.08ZM88.9483 54.14C87.855 54.14 86.8816 53.9067 86.0283 53.44C85.175 52.96 84.5016 52.3067 84.0083 51.48C83.515 50.6533 83.2683 49.7133 83.2683 48.66C83.2683 47.5933 83.515 46.6533 84.0083 45.84C84.5016 45.0133 85.175 44.3667 86.0283 43.9C86.8816 43.4333 87.855 43.2 88.9483 43.2C90.055 43.2 91.035 43.4333 91.8883 43.9C92.755 44.3667 93.4283 45.0067 93.9083 45.82C94.4016 46.6333 94.6483 47.58 94.6483 48.66C94.6483 49.7133 94.4016 50.6533 93.9083 51.48C93.4283 52.3067 92.755 52.96 91.8883 53.44C91.035 53.9067 90.055 54.14 88.9483 54.14ZM88.9483 52C89.5616 52 90.1083 51.8667 90.5883 51.6C91.0683 51.3333 91.4416 50.9467 91.7083 50.44C91.9883 49.9333 92.1283 49.34 92.1283 48.66C92.1283 47.9667 91.9883 47.3733 91.7083 46.88C91.4416 46.3733 91.0683 45.9867 90.5883 45.72C90.1083 45.4533 89.5683 45.32 88.9683 45.32C88.355 45.32 87.8083 45.4533 87.3283 45.72C86.8616 45.9867 86.4883 46.3733 86.2083 46.88C85.9283 47.3733 85.7883 47.9667 85.7883 48.66C85.7883 49.34 85.9283 49.9333 86.2083 50.44C86.4883 50.9467 86.8616 51.3333 87.3283 51.6C87.8083 51.8667 88.3483 52 88.9483 52ZM101.898 54.14C100.805 54.14 99.8313 53.9067 98.978 53.44C98.1246 52.96 97.4513 52.3067 96.958 51.48C96.4646 50.6533 96.218 49.7133 96.218 48.66C96.218 47.5933 96.4646 46.6533 96.958 45.84C97.4513 45.0133 98.1246 44.3667 98.978 43.9C99.8313 43.4333 100.805 43.2 101.898 43.2C103.005 43.2 103.985 43.4333 104.838 43.9C105.705 44.3667 106.378 45.0067 106.858 45.82C107.351 46.6333 107.598 47.58 107.598 48.66C107.598 49.7133 107.351 50.6533 106.858 51.48C106.378 52.3067 105.705 52.96 104.838 53.44C103.985 53.9067 103.005 54.14 101.898 54.14ZM101.898 52C102.511 52 103.058 51.8667 103.538 51.6C104.018 51.3333 104.391 50.9467 104.658 50.44C104.938 49.9333 105.078 49.34 105.078 48.66C105.078 47.9667 104.938 47.3733 104.658 46.88C104.391 46.3733 104.018 45.9867 103.538 45.72C103.058 45.4533 102.518 45.32 101.918 45.32C101.305 45.32 100.758 45.4533 100.278 45.72C99.8113 45.9867 99.438 46.3733 99.158 46.88C98.878 47.3733 98.738 47.9667 98.738 48.66C98.738 49.34 98.878 49.9333 99.158 50.44C99.438 50.9467 99.8113 51.3333 100.278 51.6C100.758 51.8667 101.298 52 101.898 52ZM114.888 58.02C113.901 58.02 112.934 57.8867 111.988 57.62C111.054 57.3667 110.288 56.9933 109.688 56.5L110.808 54.62C111.274 55.0067 111.861 55.3133 112.568 55.54C113.288 55.78 114.014 55.9 114.748 55.9C115.921 55.9 116.781 55.6267 117.328 55.08C117.874 54.5467 118.148 53.74 118.148 52.66V50.76L118.348 48.34L118.268 45.92V43.32H120.648V52.38C120.648 54.3133 120.154 55.7333 119.168 56.64C118.181 57.56 116.754 58.02 114.888 58.02ZM114.568 53.52C113.554 53.52 112.634 53.3067 111.808 52.88C110.994 52.44 110.348 51.8333 109.868 51.06C109.401 50.2867 109.168 49.38 109.168 48.34C109.168 47.3133 109.401 46.4133 109.868 45.64C110.348 44.8667 110.994 44.2667 111.808 43.84C112.634 43.4133 113.554 43.2 114.568 43.2C115.474 43.2 116.288 43.38 117.008 43.74C117.728 44.1 118.301 44.66 118.728 45.42C119.168 46.18 119.388 47.1533 119.388 48.34C119.388 49.5267 119.168 50.5067 118.728 51.28C118.301 52.04 117.728 52.6067 117.008 52.98C116.288 53.34 115.474 53.52 114.568 53.52ZM114.948 51.4C115.574 51.4 116.134 51.2733 116.628 51.02C117.121 50.7533 117.501 50.3933 117.768 49.94C118.048 49.4733 118.188 48.94 118.188 48.34C118.188 47.74 118.048 47.2133 117.768 46.76C117.501 46.2933 117.121 45.94 116.628 45.7C116.134 45.4467 115.574 45.32 114.948 45.32C114.321 45.32 113.754 45.4467 113.248 45.7C112.754 45.94 112.368 46.2933 112.088 46.76C111.821 47.2133 111.688 47.74 111.688 48.34C111.688 48.94 111.821 49.4733 112.088 49.94C112.368 50.3933 112.754 50.7533 113.248 51.02C113.754 51.2733 114.321 51.4 114.948 51.4ZM123.993 54V39.16H126.493V54H123.993ZM134.854 54.14C133.667 54.14 132.627 53.9067 131.734 53.44C130.854 52.96 130.167 52.3067 129.674 51.48C129.194 50.6533 128.954 49.7133 128.954 48.66C128.954 47.5933 129.187 46.6533 129.654 45.84C130.134 45.0133 130.787 44.3667 131.614 43.9C132.454 43.4333 133.407 43.2 134.474 43.2C135.514 43.2 136.44 43.4267 137.254 43.88C138.067 44.3333 138.707 44.9733 139.174 45.8C139.64 46.6267 139.874 47.6 139.874 48.72C139.874 48.8267 139.867 48.9467 139.854 49.08C139.854 49.2133 139.847 49.34 139.834 49.46H130.934V47.8H138.514L137.534 48.32C137.547 47.7067 137.42 47.1667 137.154 46.7C136.887 46.2333 136.52 45.8667 136.054 45.6C135.6 45.3333 135.074 45.2 134.474 45.2C133.86 45.2 133.32 45.3333 132.854 45.6C132.4 45.8667 132.04 46.24 131.774 46.72C131.52 47.1867 131.394 47.74 131.394 48.38V48.78C131.394 49.42 131.54 49.9867 131.834 50.48C132.127 50.9733 132.54 51.3533 133.074 51.62C133.607 51.8867 134.22 52.02 134.914 52.02C135.514 52.02 136.054 51.9267 136.534 51.74C137.014 51.5533 137.44 51.26 137.814 50.86L139.154 52.4C138.674 52.96 138.067 53.3933 137.334 53.7C136.614 53.9933 135.787 54.14 134.854 54.14ZM148.161 54V40H153.921C155.161 40 156.221 40.2 157.101 40.6C157.994 41 158.681 41.5733 159.161 42.32C159.641 43.0667 159.881 43.9533 159.881 44.98C159.881 46.0067 159.641 46.8933 159.161 47.64C158.681 48.3867 157.994 48.96 157.101 49.36C156.221 49.76 155.161 49.96 153.921 49.96H149.601L150.761 48.74V54H148.161ZM150.761 49.02L149.601 47.76H153.801C154.947 47.76 155.807 47.52 156.381 47.04C156.967 46.5467 157.261 45.86 157.261 44.98C157.261 44.0867 156.967 43.4 156.381 42.92C155.807 42.44 154.947 42.2 153.801 42.2H149.601L150.761 40.92V49.02ZM162.491 54V39.16H164.991V54H162.491ZM174.912 54V51.84L174.772 51.38V47.6C174.772 46.8667 174.552 46.3 174.112 45.9C173.672 45.4867 173.005 45.28 172.112 45.28C171.512 45.28 170.918 45.3733 170.332 45.56C169.758 45.7467 169.272 46.0067 168.872 46.34L167.892 44.52C168.465 44.08 169.145 43.7533 169.932 43.54C170.732 43.3133 171.558 43.2 172.412 43.2C173.958 43.2 175.152 43.5733 175.992 44.32C176.845 45.0533 177.272 46.1933 177.272 47.74V54H174.912ZM171.552 54.14C170.752 54.14 170.052 54.0067 169.452 53.74C168.852 53.46 168.385 53.08 168.052 52.6C167.732 52.1067 167.572 51.5533 167.572 50.94C167.572 50.34 167.712 49.8 167.992 49.32C168.285 48.84 168.758 48.46 169.412 48.18C170.065 47.9 170.932 47.76 172.012 47.76H175.112V49.42H172.192C171.338 49.42 170.765 49.56 170.472 49.84C170.178 50.1067 170.032 50.44 170.032 50.84C170.032 51.2933 170.212 51.6533 170.572 51.92C170.932 52.1867 171.432 52.32 172.072 52.32C172.685 52.32 173.232 52.18 173.712 51.9C174.205 51.62 174.558 51.2067 174.772 50.66L175.192 52.16C174.952 52.7867 174.518 53.2733 173.892 53.62C173.278 53.9667 172.498 54.14 171.552 54.14ZM181.224 58.02C180.704 58.02 180.184 57.9333 179.664 57.76C179.144 57.5867 178.711 57.3467 178.364 57.04L179.364 55.2C179.617 55.4267 179.904 55.6067 180.224 55.74C180.544 55.8733 180.871 55.94 181.204 55.94C181.657 55.94 182.024 55.8267 182.304 55.6C182.584 55.3733 182.844 54.9933 183.084 54.46L183.704 53.06L183.904 52.76L187.944 43.32H190.344L185.344 54.86C185.011 55.66 184.637 56.2933 184.224 56.76C183.824 57.2267 183.371 57.5533 182.864 57.74C182.371 57.9267 181.824 58.02 181.224 58.02ZM183.424 54.38L178.604 43.32H181.204L185.124 52.54L183.424 54.38Z" fill="white"/>
<rect x="1.5" y="1.5" width="203" height="67" rx="8.5" stroke="black" stroke-width="3"/>
</svg>
