<svg width="51" height="51" viewBox="0 0 51 51" fill="none" xmlns="http://www.w3.org/2000/svg">
<rect width="51" height="51" rx="25.5" fill="#D5D5D5"/>
<path fill-rule="evenodd" clip-rule="evenodd" d="M24.5901 14H27.4087C29.419 14.0045 29.8806 14.0223 30.9472 14.0709C32.2246 14.1292 33.0969 14.3321 33.8603 14.6287C34.6494 14.9354 35.3187 15.3457 35.9859 16.0129C36.653 16.6801 37.0634 17.3493 37.3701 18.1385C37.6667 18.9018 37.8696 19.7742 37.9278 21.0515C37.9843 22.2888 37.9991 22.712 38 25.6828V26.316C37.9991 29.2868 37.9843 29.7099 37.9278 30.9472C37.8696 32.2246 37.6667 33.0969 37.3701 33.8603C37.0634 34.6494 36.653 35.3187 35.9859 35.9859C35.3187 36.653 34.6494 37.0634 33.8603 37.3701C33.0969 37.6667 32.2246 37.8696 30.9472 37.9278C29.7099 37.9843 29.2868 37.9991 26.316 38H25.6828C22.712 37.9991 22.2888 37.9843 21.0515 37.9278C19.7742 37.8696 18.9018 37.6667 18.1385 37.3701C17.3493 37.0634 16.6801 36.653 16.0129 35.9859C15.3457 35.3187 14.9354 34.6494 14.6287 33.8603C14.3321 33.0969 14.1292 32.2246 14.0709 30.9472C14.0223 29.8806 14.0045 29.419 14 27.4087V24.5901C14.0045 22.5798 14.0223 22.1182 14.0709 21.0515C14.1292 19.7742 14.3321 18.9018 14.6287 18.1385C14.9354 17.3493 15.3457 16.6801 16.0129 16.0129C16.6801 15.3457 17.3493 14.9354 18.1385 14.6287C18.9018 14.3321 19.7742 14.1292 21.0515 14.0709C22.1182 14.0223 22.5798 14.0045 24.5901 14H27.4087H24.5901ZM26.8797 16.1614H25.1191C22.7103 16.1639 22.289 16.179 21.1501 16.231C19.98 16.2843 19.3446 16.4798 18.9217 16.6442C18.3616 16.8619 17.9618 17.1219 17.5419 17.5419C17.1219 17.9618 16.8619 18.3616 16.6442 18.9217C16.4798 19.3446 16.2843 19.98 16.231 21.1501C16.179 22.289 16.1639 22.7103 16.1614 25.1191V26.8797C16.1639 29.2885 16.179 29.7098 16.231 30.8487C16.2843 32.0187 16.4798 32.6542 16.6442 33.077C16.8619 33.6372 17.122 34.037 17.5419 34.4569C17.9618 34.8768 18.3616 35.1369 18.9217 35.3546C19.3446 35.5189 19.98 35.7144 21.1501 35.7678C22.4154 35.8255 22.7948 35.8378 25.9994 35.8378C29.2039 35.8378 29.5834 35.8255 30.8487 35.7678C32.0187 35.7144 32.6542 35.5189 33.077 35.3546C33.6372 35.1369 34.037 34.8768 34.4569 34.4569C34.8768 34.037 35.1369 33.6372 35.3546 33.077C35.5189 32.6542 35.7144 32.0187 35.7678 30.8487C35.8255 29.5833 35.8378 29.2037 35.8378 25.9994C35.8378 22.7951 35.8255 22.4155 35.7678 21.1501C35.7144 19.98 35.5189 19.3446 35.3546 18.9217C35.1369 18.3616 34.8768 17.9618 34.4569 17.5419C34.037 17.1219 33.6372 16.8619 33.077 16.6442C32.6542 16.4798 32.0187 16.2843 30.8487 16.231C29.7098 16.179 29.2885 16.1639 26.8797 16.1614ZM25.9994 19.999C29.3133 19.999 31.9997 22.6855 31.9997 25.9994C31.9997 29.3133 29.3133 31.9997 25.9994 31.9997C22.6855 31.9997 19.999 29.3133 19.999 25.9994C19.999 22.6855 22.6855 19.999 25.9994 19.999ZM25.9994 22.1044C23.8482 22.1044 22.1044 23.8482 22.1044 25.9994C22.1044 28.1505 23.8482 29.8943 25.9994 29.8943C28.1505 29.8943 29.8943 28.1505 29.8943 25.9994C29.8943 23.8482 28.1505 22.1044 25.9994 22.1044ZM32.4997 17.9989C33.3282 17.9989 33.9998 18.6706 33.9998 19.499C33.9998 20.3275 33.3282 20.9991 32.4997 20.9991C31.6713 20.9991 30.9997 20.3275 30.9997 19.499C30.9997 18.6706 31.6713 17.9989 32.4997 17.9989Z" fill="black"/>
</svg>
