<svg width="30" height="30" viewBox="0 0 30 30" fill="none" xmlns="http://www.w3.org/2000/svg">
<g id="ic20-instagram">
<path id="Icon" fill-rule="evenodd" clip-rule="evenodd" d="M13.5901 3H16.4087C18.419 3.00455 18.8806 3.02225 19.9472 3.07092C21.2246 3.12918 22.0969 3.33207 22.8603 3.62875C23.6494 3.93539 24.3187 4.34573 24.9859 5.01288C25.653 5.68008 26.0634 6.34933 26.3701 7.13848C26.6667 7.90181 26.8696 8.77418 26.9278 10.0515C26.9843 11.2888 26.9991 11.712 27 14.6828V15.316C26.9991 18.2868 26.9843 18.7099 26.9278 19.9472C26.8696 21.2246 26.6667 22.0969 26.3701 22.8603C26.0634 23.6494 25.653 24.3187 24.9859 24.9859C24.3187 25.653 23.6494 26.0634 22.8603 26.3701C22.0969 26.6667 21.2246 26.8696 19.9472 26.9278C18.7099 26.9843 18.2868 26.9991 15.316 27H14.6828C11.712 26.9991 11.2888 26.9843 10.0515 26.9278C8.77418 26.8696 7.90181 26.6667 7.13848 26.3701C6.34933 26.0634 5.68008 25.653 5.01288 24.9859C4.34573 24.3187 3.93539 23.6494 3.62875 22.8603C3.33207 22.0969 3.12918 21.2246 3.07092 19.9472C3.02225 18.8806 3.00455 18.419 3 16.4087V13.5901C3.00455 11.5798 3.02225 11.1182 3.07092 10.0515C3.12918 8.77418 3.33207 7.90181 3.62875 7.13848C3.93539 6.34933 4.34573 5.68008 5.01288 5.01288C5.68008 4.34573 6.34933 3.93539 7.13848 3.62875C7.90181 3.33207 8.77418 3.12918 10.0515 3.07092C11.1182 3.02225 11.5798 3.00455 13.5901 3H16.4087H13.5901ZM15.8797 5.16139H14.1191C11.7103 5.16389 11.289 5.179 10.1501 5.23096C8.98002 5.28432 8.3446 5.47982 7.92172 5.64416C7.36156 5.86186 6.9618 6.12191 6.54188 6.54188C6.12191 6.9618 5.86186 7.36156 5.64416 7.92172C5.47982 8.3446 5.28432 8.98002 5.23096 10.1501C5.179 11.289 5.16389 11.7103 5.16139 14.1191V15.8797C5.16389 18.2885 5.179 18.7098 5.23096 19.8487C5.28432 21.0187 5.47982 21.6542 5.64416 22.077C5.86186 22.6372 6.12196 23.037 6.54188 23.4569C6.9618 23.8768 7.36156 24.1369 7.92172 24.3546C8.3446 24.5189 8.98002 24.7144 10.1501 24.7678C11.4154 24.8255 11.7948 24.8378 14.9994 24.8378C18.2039 24.8378 18.5834 24.8255 19.8487 24.7678C21.0187 24.7144 21.6542 24.5189 22.077 24.3546C22.6372 24.1369 23.037 23.8768 23.4569 23.4569C23.8768 23.037 24.1369 22.6372 24.3546 22.077C24.5189 21.6542 24.7144 21.0187 24.7678 19.8487C24.8255 18.5833 24.8378 18.2037 24.8378 14.9994C24.8378 11.7951 24.8255 11.4155 24.7678 10.1501C24.7144 8.98002 24.5189 8.3446 24.3546 7.92172C24.1369 7.36156 23.8768 6.9618 23.4569 6.54188C23.037 6.12191 22.6372 5.86186 22.077 5.64416C21.6542 5.47982 21.0187 5.28432 19.8487 5.23096C18.7098 5.179 18.2885 5.16389 15.8797 5.16139ZM14.9994 8.99904C18.3133 8.99904 20.9997 11.6855 20.9997 14.9994C20.9997 18.3133 18.3133 20.9997 14.9994 20.9997C11.6855 20.9997 8.99904 18.3133 8.99904 14.9994C8.99904 11.6855 11.6855 8.99904 14.9994 8.99904ZM14.9994 11.1044C12.8482 11.1044 11.1044 12.8482 11.1044 14.9994C11.1044 17.1505 12.8482 18.8943 14.9994 18.8943C17.1505 18.8943 18.8943 17.1505 18.8943 14.9994C18.8943 12.8482 17.1505 11.1044 14.9994 11.1044ZM21.4997 6.99893C22.3282 6.99893 22.9998 7.67056 22.9998 8.49904C22.9998 9.32752 22.3282 9.9991 21.4997 9.9991C20.6713 9.9991 19.9997 9.32752 19.9997 8.49904C19.9997 7.67056 20.6713 6.99893 21.4997 6.99893Z" fill="black"/>
</g>
</svg>
