<svg width="51" height="51" viewBox="0 0 51 51" fill="none" xmlns="http://www.w3.org/2000/svg">
<rect width="51" height="51" rx="25.5" fill="#D5D5D5"/>
<path fill-rule="evenodd" clip-rule="evenodd" d="M35.9951 14C37.1024 14 38 14.897 38 16.0049V35.9951C38 37.1024 37.103 38 35.9951 38H16.0049C14.8976 38 14 37.103 14 35.9951V16.0049C14 14.8976 14.897 14 16.0049 14H35.9951ZM30.2225 23C28.5317 23 27.3709 23.7418 26.8464 24.6082L26.75 24.783V23.15H23.5V34.65H27V29.0795C27 27.2125 27.6875 26.025 29.34 26.025C30.4688 26.025 30.9487 27.0136 30.9961 28.7782L31 29.0795V34.65H34.5V28.2985C34.5 24.869 33.6795 23 30.2225 23ZM21 23H17.5V34.5H21V23ZM19.25 17C18.0075 17 17 18.0075 17 19.25C17 20.4925 18.0075 21.5 19.25 21.5C20.4925 21.5 21.5 20.4925 21.5 19.25C21.5 18.0075 20.4925 17 19.25 17Z" fill="black"/>
</svg>
