<svg width="30" height="30" viewBox="0 0 30 30" fill="none" xmlns="http://www.w3.org/2000/svg">
<g id="ic20-linkedin">
<path id="Icon" fill-rule="evenodd" clip-rule="evenodd" d="M24.9951 3C26.1024 3 27 3.89703 27 5.00495V24.9951C27 26.1024 26.103 27 24.9951 27H5.00495C3.89765 27 3 26.103 3 24.9951V5.00495C3 3.89765 3.89703 3 5.00495 3H24.9951ZM19.2225 12C17.5317 12 16.3709 12.7418 15.8464 13.6082L15.75 13.783V12.15H12.5V23.65H16V18.0795C16 16.2125 16.6875 15.025 18.34 15.025C19.4688 15.025 19.9487 16.0136 19.9961 17.7782L20 18.0795V23.65H23.5V17.2985C23.5 13.869 22.6795 12 19.2225 12ZM10 12H6.5V23.5H10V12ZM8.25 6C7.0075 6 6 7.0075 6 8.25C6 9.4925 7.0075 10.5 8.25 10.5C9.4925 10.5 10.5 9.4925 10.5 8.25C10.5 7.0075 9.4925 6 8.25 6Z" fill="black"/>
</g>
</svg>
