<svg width="161" height="122" viewBox="0 0 161 122" fill="none" xmlns="http://www.w3.org/2000/svg">
<path opacity="0.3" d="M64 -18L39 83.5L33 54.5C42.6667 54.5 50.6667 57.5 57 63.5C63.3333 69.5 66.5 77.5 66.5 87.5C66.5 97.5 63.3333 105.667 57 112C50.6667 118.333 42.8333 121.5 33.5 121.5C23.8333 121.5 15.8333 118.333 9.5 112C3.16667 105.333 1.90735e-06 97.1667 1.90735e-06 87.5C1.90735e-06 84.1667 0.166668 81 0.500001 78C1.16667 75 2.16667 71.5 3.5 67.5C4.83334 63.1666 6.66667 58 9 52L32.5 -18H64ZM158.5 -18L133.5 83.5L127.5 54.5C137.167 54.5 145.167 57.5 151.5 63.5C157.833 69.5 161 77.5 161 87.5C161 97.5 157.833 105.667 151.5 112C145.167 118.333 137.333 121.5 128 121.5C118.333 121.5 110.333 118.333 104 112C97.6667 105.333 94.5 97.1667 94.5 87.5C94.5 84.1667 94.6667 81 95 78C95.6667 75 96.6667 71.5 98 67.5C99.3333 63.1666 101.167 58 103.5 52L127 -18H158.5Z" fill="#BBBBBB"/>
</svg>
