<svg width="103" height="64" viewBox="0 0 103 64" fill="none" xmlns="http://www.w3.org/2000/svg">
<g id="Done_all_round_light">
<path id="Line 1" d="M17.7298 43.0972L29.9287 52.8562C30.5355 53.3417 31.4199 53.2483 31.912 52.6469L54.9532 24.4855" stroke="white" stroke-width="2.83607" stroke-linecap="round"/>
<path id="Subtract" fill-rule="evenodd" clip-rule="evenodd" d="M21.9446 44.3208L37.4387 25.3835C37.9347 24.7773 37.8453 23.8839 37.2392 23.388C36.6331 22.8921 35.7397 22.9814 35.2437 23.5876L19.7658 42.5051L21.9446 44.3208ZM20.1486 46.5159L17.9698 44.7002L12.1753 51.7824L2.62752 44.6216C2.00099 44.1517 1.11217 44.2787 0.642273 44.9052C0.172378 45.5317 0.29935 46.4205 0.925876 46.8904L10.4736 54.0512C11.6894 54.9631 13.4079 54.7545 14.3703 53.5783L20.1486 46.5159Z" fill="white"/>
</g>
</svg>
