<svg width="51" height="51" viewBox="0 0 51 51" fill="none" xmlns="http://www.w3.org/2000/svg">
<rect width="51" height="51" rx="25.5" fill="#D5D5D5"/>
<path fill-rule="evenodd" clip-rule="evenodd" d="M37.9163 19.4797C37.9354 19.764 37.9354 20.0484 37.9354 20.3328C37.9354 29.0062 31.7488 39 20.4417 39C16.9581 39 13.7221 37.9234 11 36.0547C11.4949 36.1156 11.9708 36.1359 12.4848 36.1359C15.3591 36.1359 18.0051 35.1 20.118 33.3328C17.415 33.2719 15.1497 31.3828 14.3693 28.7828C14.75 28.8437 15.1307 28.8843 15.5305 28.8843C16.0825 28.8843 16.6346 28.8031 17.1485 28.6609C14.3312 28.0515 12.2182 25.4109 12.2182 22.2219V22.1406C13.0367 22.6281 13.9886 22.9328 14.9974 22.9734C13.3413 21.7953 12.2563 19.7843 12.2563 17.5093C12.2563 16.2906 12.5608 15.1734 13.0939 14.1984C16.1205 18.1797 20.6701 20.7796 25.7715 21.064C25.6764 20.5765 25.6193 20.0688 25.6193 19.5609C25.6193 15.9453 28.3604 13 31.7678 13C33.5381 13 35.137 13.7922 36.2602 15.0719C37.6497 14.7875 38.9822 14.239 40.1625 13.4875C39.7055 15.011 38.7348 16.2907 37.4594 17.1031C38.6967 16.961 39.896 16.5953 41 16.0875C40.1626 17.3875 39.1156 18.5452 37.9163 19.4797Z" fill="black"/>
</svg>
