<svg width="30" height="30" viewBox="0 0 30 30" fill="none" xmlns="http://www.w3.org/2000/svg">
<g id="ic16-twitter">
<path id="Icon" fill-rule="evenodd" clip-rule="evenodd" d="M26.9163 8.47966C26.9354 8.76403 26.9354 9.04845 26.9354 9.33281C26.9354 18.0062 20.7488 28 9.44166 28C5.95813 28 2.7221 26.9234 0 25.0547C0.494943 25.1156 0.970785 25.1359 1.48477 25.1359C4.3591 25.1359 7.00509 24.1 9.11804 22.3328C6.41499 22.2719 4.14974 20.3828 3.36927 17.7828C3.75 17.8437 4.1307 17.8843 4.53049 17.8843C5.0825 17.8843 5.63457 17.8031 6.1485 17.6609C3.33124 17.0515 1.21823 14.4109 1.21823 11.2219V11.1406C2.03673 11.6281 2.98859 11.9328 3.9974 11.9734C2.3413 10.7953 1.25631 8.78435 1.25631 6.50933C1.25631 5.2906 1.56083 4.17341 2.09386 3.19841C5.12053 7.17965 9.67006 9.77961 14.7715 10.064C14.6764 9.57653 14.6193 9.06877 14.6193 8.56095C14.6193 4.94528 17.3604 2 20.7678 2C22.5381 2 24.137 2.79219 25.2602 4.07187C26.6497 3.78751 27.9822 3.23905 29.1625 2.4875C28.7055 4.01098 27.7348 5.29066 26.4594 6.10311C27.6967 5.96099 28.896 5.59528 30 5.08752C29.1626 6.38747 28.1156 7.54524 26.9163 8.47966Z" fill="black"/>
</g>
</svg>
